<svg width="80" height="80" viewBox="0 0 80 80" fill="none" xmlns="http://www.w3.org/2000/svg">
<path d="M72.5 68.75H66.25V11.25H67.5C68.4946 11.25 69.4484 10.8549 70.1516 10.1517C70.8549 9.44839 71.25 8.49456 71.25 7.5C71.25 6.50544 70.8549 5.55161 70.1516 4.84835C69.4484 4.14509 68.4946 3.75 67.5 3.75H12.5C11.5054 3.75 10.5516 4.14509 9.84835 4.84835C9.14509 5.55161 8.75 6.50544 8.75 7.5C8.75 8.49456 9.14509 9.44839 9.84835 10.1517C10.5516 10.8549 11.5054 11.25 12.5 11.25H13.75V68.75H7.5C6.50544 68.75 5.55161 69.1451 4.84835 69.8484C4.14509 70.5516 3.75 71.5054 3.75 72.5C3.75 73.4946 4.14509 74.4484 4.84835 75.1516C5.55161 75.8549 6.50544 76.25 7.5 76.25H72.5C73.4946 76.25 74.4484 75.8549 75.1516 75.1516C75.8549 74.4484 76.25 73.4946 76.25 72.5C76.25 71.5054 75.8549 70.5516 75.1516 69.8484C74.4484 69.1451 73.4946 68.75 72.5 68.75ZM21.25 11.25H58.75V68.75H51.25V57.5C51.25 56.5054 50.8549 55.5516 50.1516 54.8484C49.4484 54.1451 48.4946 53.75 47.5 53.75H32.5C31.5054 53.75 30.5516 54.1451 29.8483 54.8484C29.1451 55.5516 28.75 56.5054 28.75 57.5V68.75H21.25V11.25ZM43.75 68.75H36.25V61.25H43.75V68.75ZM26.25 20C26.25 19.0054 26.6451 18.0516 27.3483 17.3483C28.0516 16.6451 29.0054 16.25 30 16.25H33.75C34.7446 16.25 35.6984 16.6451 36.4016 17.3483C37.1049 18.0516 37.5 19.0054 37.5 20C37.5 20.9946 37.1049 21.9484 36.4016 22.6517C35.6984 23.3549 34.7446 23.75 33.75 23.75H30C29.0054 23.75 28.0516 23.3549 27.3483 22.6517C26.6451 21.9484 26.25 20.9946 26.25 20ZM42.5 20C42.5 19.0054 42.8951 18.0516 43.5984 17.3483C44.3016 16.6451 45.2554 16.25 46.25 16.25H50C50.9946 16.25 51.9484 16.6451 52.6516 17.3483C53.3549 18.0516 53.75 19.0054 53.75 20C53.75 20.9946 53.3549 21.9484 52.6516 22.6517C51.9484 23.3549 50.9946 23.75 50 23.75H46.25C45.2554 23.75 44.3016 23.3549 43.5984 22.6517C42.8951 21.9484 42.5 20.9946 42.5 20ZM26.25 32.5C26.25 31.5054 26.6451 30.5516 27.3483 29.8483C28.0516 29.1451 29.0054 28.75 30 28.75H33.75C34.7446 28.75 35.6984 29.1451 36.4016 29.8483C37.1049 30.5516 37.5 31.5054 37.5 32.5C37.5 33.4946 37.1049 34.4484 36.4016 35.1517C35.6984 35.8549 34.7446 36.25 33.75 36.25H30C29.0054 36.25 28.0516 35.8549 27.3483 35.1517C26.6451 34.4484 26.25 33.4946 26.25 32.5ZM42.5 32.5C42.5 31.5054 42.8951 30.5516 43.5984 29.8483C44.3016 29.1451 45.2554 28.75 46.25 28.75H50C50.9946 28.75 51.9484 29.1451 52.6516 29.8483C53.3549 30.5516 53.75 31.5054 53.75 32.5C53.75 33.4946 53.3549 34.4484 52.6516 35.1517C51.9484 35.8549 50.9946 36.25 50 36.25H46.25C45.2554 36.25 44.3016 35.8549 43.5984 35.1517C42.8951 34.4484 42.5 33.4946 42.5 32.5ZM26.25 45C26.25 44.0054 26.6451 43.0516 27.3483 42.3484C28.0516 41.6451 29.0054 41.25 30 41.25H33.75C34.7446 41.25 35.6984 41.6451 36.4016 42.3484C37.1049 43.0516 37.5 44.0054 37.5 45C37.5 45.9946 37.1049 46.9484 36.4016 47.6516C35.6984 48.3549 34.7446 48.75 33.75 48.75H30C29.0054 48.75 28.0516 48.3549 27.3483 47.6516C26.6451 46.9484 26.25 45.9946 26.25 45ZM42.5 45C42.5 44.0054 42.8951 43.0516 43.5984 42.3484C44.3016 41.6451 45.2554 41.25 46.25 41.25H50C50.9946 41.25 51.9484 41.6451 52.6516 42.3484C53.3549 43.0516 53.75 44.0054 53.75 45C53.75 45.9946 53.3549 46.9484 52.6516 47.6516C51.9484 48.3549 50.9946 48.75 50 48.75H46.25C45.2554 48.75 44.3016 48.3549 43.5984 47.6516C42.8951 46.9484 42.5 45.9946 42.5 45Z" fill="#146140"/>
</svg>
