<svg width="38" height="38" viewBox="0 0 38 38" fill="none" xmlns="http://www.w3.org/2000/svg">
<path d="M0.00195312 13.3684C0.00195312 9.79561 0.00195312 8.00924 1.11186 6.89934C2.22177 5.78943 4.00814 5.78943 7.58088 5.78943H30.3177C33.8904 5.78943 35.6768 5.78943 36.7867 6.89934C37.8966 8.00924 37.8966 9.79561 37.8966 13.3684C37.8966 14.2615 37.8966 14.7081 37.6191 14.9856C37.3416 15.2631 36.895 15.2631 36.0018 15.2631H1.89668C1.0035 15.2631 0.556907 15.2631 0.27943 14.9856C0.00195312 14.7081 0.00195312 14.2615 0.00195312 13.3684Z" fill="#146140"/>
<path fill-rule="evenodd" clip-rule="evenodd" d="M0 30.4211C0 33.9939 0 35.7802 1.10991 36.8901C2.21982 38 4.00619 38 7.57893 38H30.3157C33.8884 38 35.6748 38 36.7847 36.8901C37.8946 35.7802 37.8946 33.9939 37.8946 30.4211V20.9475C37.8946 20.0543 37.8946 19.6077 37.6171 19.3302C37.3397 19.0527 36.8931 19.0527 35.9999 19.0527H1.89473C1.00155 19.0527 0.554954 19.0527 0.277477 19.3302C0 19.6077 0 20.0543 0 20.9475V30.4211ZM9.47366 24.7369C9.47366 23.8437 9.47366 23.3972 9.75113 23.1197C10.0286 22.8422 10.4752 22.8422 11.3684 22.8422H15.1579C16.051 22.8422 16.4976 22.8422 16.7751 23.1197C17.0526 23.3972 17.0526 23.8437 17.0526 24.7369C17.0526 25.6301 17.0526 26.0767 16.7751 26.3542C16.4976 26.6317 16.051 26.6317 15.1579 26.6317H11.3684C10.4752 26.6317 10.0286 26.6317 9.75113 26.3542C9.47366 26.0767 9.47366 25.6301 9.47366 24.7369ZM9.75113 30.6986C9.47366 30.9761 9.47366 31.4227 9.47366 32.3159C9.47366 33.209 9.47366 33.6556 9.75113 33.9331C10.0286 34.2106 10.4752 34.2106 11.3684 34.2106H15.1579C16.051 34.2106 16.4976 34.2106 16.7751 33.9331C17.0526 33.6556 17.0526 33.209 17.0526 32.3159C17.0526 31.4227 17.0526 30.9761 16.7751 30.6986C16.4976 30.4211 16.051 30.4211 15.1579 30.4211H11.3684C10.4752 30.4211 10.0286 30.4211 9.75113 30.6986ZM20.8428 24.7369C20.8428 23.8437 20.8428 23.3971 21.1203 23.1196C21.3977 22.8422 21.8443 22.8422 22.7375 22.8422H26.527C27.4202 22.8422 27.8667 22.8422 28.1442 23.1196C28.4217 23.3971 28.4217 23.8437 28.4217 24.7369C28.4217 25.6301 28.4217 26.0767 28.1442 26.3541C27.8667 26.6316 27.4202 26.6316 26.527 26.6316H22.7375C21.8443 26.6316 21.3977 26.6316 21.1203 26.3541C20.8428 26.0767 20.8428 25.6301 20.8428 24.7369ZM21.1203 30.6986C20.8428 30.9761 20.8428 31.4227 20.8428 32.3159C20.8428 33.2091 20.8428 33.6557 21.1203 33.9331C21.3977 34.2106 21.8443 34.2106 22.7375 34.2106H26.527C27.4202 34.2106 27.8667 34.2106 28.1442 33.9331C28.4217 33.6557 28.4217 33.2091 28.4217 32.3159C28.4217 31.4227 28.4217 30.9761 28.1442 30.6986C27.8667 30.4211 27.4202 30.4211 26.527 30.4211H22.7375C21.8443 30.4211 21.3977 30.4211 21.1203 30.6986Z" fill="#146140"/>
<path d="M9.47559 2L9.47558 7.68419" stroke="#146140" stroke-width="3.78946" stroke-linecap="round"/>
<path d="M28.4219 2L28.4219 7.68419" stroke="#146140" stroke-width="3.78946" stroke-linecap="round"/>
</svg>
