<svg width="80" height="80" viewBox="0 0 80 80" fill="none" xmlns="http://www.w3.org/2000/svg">
<g clip-path="url(#clip0_19_15)">
<path d="M76.667 13.3333V8.88889C76.667 7.71015 76.1987 6.57969 75.3652 5.74619C74.5318 4.9127 73.4013 4.44444 72.2225 4.44444H27.7781V0H14.4448V4.44444H10.0003V13.3333H14.4448V53.3333H10.0003V44.4444H1.11144V53.3333H-3.33301V62.2222H1.11144V80H10.0003V62.2222H32.2225V80H41.1114V62.2222H45.5559V53.3333H41.1114V44.4444H32.2225V53.3333H27.7781V13.3333H63.3337V33.8667C61.2448 34.6222 59.7337 36.5778 59.7337 38.9333C59.7337 40.8889 60.8003 42.6667 62.4448 43.6444V48.8889H65.2003C66.7114 48.8889 67.9114 50.1333 67.9114 51.6444C67.9114 53.1556 66.7114 54.4 65.2003 54.4C64.2225 54.4 63.3337 53.8667 62.8448 53.0222C62.4744 52.4029 61.8759 51.9535 61.1779 51.7706C60.4798 51.5878 59.7378 51.6861 59.1114 52.0444C57.7781 52.7556 57.3337 54.4444 58.0892 55.7778C59.5559 58.2667 62.267 59.8667 65.2003 59.8667C69.6892 59.8667 73.3781 56.1778 73.3781 51.6444C73.3781 48.1778 71.1559 45.0667 67.9114 43.9111V43.6444C69.6003 42.6667 70.667 40.8889 70.667 38.9333C70.667 36.8889 69.467 35.1556 67.7781 34.2222V13.3333H76.667ZM23.3337 47.3778L18.8892 51.8222V45.5111L23.3337 41.0667V47.3778ZM23.3337 34.2667L18.8892 38.7111V32.4L23.3337 27.9556V34.2667ZM18.8892 25.3778V19.0667L23.3337 14.6222V20.9333L18.8892 25.3778Z" fill="#146140"/>
</g>
<defs>
<clipPath id="clip0_19_15">
<rect width="80" height="80" fill="white"/>
</clipPath>
</defs>
</svg>
