<svg width="32" height="36" viewBox="0 0 32 36" fill="none" xmlns="http://www.w3.org/2000/svg">
<path fill-rule="evenodd" clip-rule="evenodd" d="M0.615661 11.6084C0 12.947 0 14.4698 0 17.5155V27.0273C0 31.2571 0 33.372 1.31401 34.686C2.50642 35.8784 4.3583 35.9887 7.85156 35.999V24.7844C7.85156 22.3067 9.86016 20.2981 12.3379 20.2981H19.0674C21.5451 20.2981 23.5537 22.3067 23.5537 24.7844V35.999C27.0463 35.9887 28.898 35.8783 30.0903 34.686C31.4043 33.372 31.4043 31.2571 31.4043 27.0273V17.5155C31.4043 14.4698 31.4043 12.947 30.7886 11.6084C30.173 10.2698 29.0167 9.27874 26.7043 7.29664L24.4611 5.37393C20.2814 1.79131 18.1915 0 15.7021 0C13.2127 0 11.1229 1.79131 6.94315 5.37393L4.69999 7.29664C2.38755 9.27874 1.23132 10.2698 0.615661 11.6084ZM19.0674 36V24.7844L12.3379 24.7844V36H19.0674Z" fill="#146140"/>
</svg>
