<svg width="80" height="80" viewBox="0 0 80 80" fill="none" xmlns="http://www.w3.org/2000/svg">
<path d="M40.0003 38.3334C37.7902 38.3334 35.6706 37.4554 34.1078 35.8926C32.545 34.3298 31.667 32.2102 31.667 30.0001C31.667 27.7899 32.545 25.6703 34.1078 24.1075C35.6706 22.5447 37.7902 21.6667 40.0003 21.6667C42.2105 21.6667 44.3301 22.5447 45.8929 24.1075C47.4557 25.6703 48.3337 27.7899 48.3337 30.0001C48.3337 31.0944 48.1181 32.1781 47.6993 33.1891C47.2805 34.2002 46.6667 35.1188 45.8929 35.8926C45.1191 36.6665 44.2004 37.2803 43.1894 37.6991C42.1783 38.1179 41.0947 38.3334 40.0003 38.3334ZM40.0003 6.66675C33.8119 6.66675 27.877 9.12507 23.5012 13.5009C19.1253 17.8768 16.667 23.8117 16.667 30.0001C16.667 47.5001 40.0003 73.3334 40.0003 73.3334C40.0003 73.3334 63.3337 47.5001 63.3337 30.0001C63.3337 23.8117 60.8753 17.8768 56.4995 13.5009C52.1236 9.12507 46.1887 6.66675 40.0003 6.66675Z" fill="#064C32"/>
</svg>
