<svg width="80" height="80" viewBox="0 0 80 80" fill="none" xmlns="http://www.w3.org/2000/svg">
<path d="M10 23.3334C10 21.5653 10.7024 19.8696 11.9526 18.6194C13.2029 17.3691 14.8986 16.6667 16.6667 16.6667H63.3333C65.1014 16.6667 66.7971 17.3691 68.0474 18.6194C69.2976 19.8696 70 21.5653 70 23.3334V56.6667C70 58.4349 69.2976 60.1306 68.0474 61.3808C66.7971 62.631 65.1014 63.3334 63.3333 63.3334H16.6667C14.8986 63.3334 13.2029 62.631 11.9526 61.3808C10.7024 60.1306 10 58.4349 10 56.6667V23.3334Z" stroke="#064C32" stroke-width="6.66667" stroke-linecap="round" stroke-linejoin="round"/>
<path d="M10 23.3335L40 43.3335L70 23.3335" stroke="#064C32" stroke-width="6.66667" stroke-linecap="round" stroke-linejoin="round"/>
</svg>
