<svg width="80" height="80" viewBox="0 0 80 80" fill="none" xmlns="http://www.w3.org/2000/svg">
<g clip-path="url(#clip0_21_183)">
<path fill-rule="evenodd" clip-rule="evenodd" d="M27.2397 52.7633C40.0563 65.58 51.933 66.9833 55.4197 67.1133C59.633 67.2667 63.933 63.8266 65.793 60.3033C62.8263 56.8233 58.963 54.1233 54.733 51.1967C52.2363 53.69 49.1597 58.3233 45.063 56.6633C42.733 55.7267 36.9797 53.0766 31.953 48.0466C26.923 43.02 24.2763 37.2667 23.333 34.94C21.673 30.8367 26.3197 27.7533 28.8163 25.2567C25.8897 20.9567 23.2363 16.9933 19.763 14.1767C16.1897 16.0433 12.7297 20.31 12.8863 24.58C13.0163 28.0667 14.4197 39.9433 27.2397 52.7633ZM55.173 73.7766C50.373 73.6 36.7697 71.72 22.523 57.4767C8.27968 43.23 6.40301 29.63 6.22301 24.8267C5.95634 17.5067 11.563 10.3967 18.0397 7.61999C18.8196 7.28321 19.6737 7.15499 20.5181 7.2479C21.3625 7.34082 22.1683 7.65168 22.8563 8.14999C28.2163 12.06 31.913 17.9833 35.0897 22.6233C35.7505 23.5882 36.0532 24.7537 35.9455 25.9181C35.8378 27.0826 35.3263 28.1728 34.4997 29L29.9797 33.5233C31.0297 35.84 33.1663 39.8333 36.6663 43.3333C40.1663 46.8333 44.1597 48.97 46.4797 50.02L50.9963 45.5C51.8267 44.6716 52.9214 44.1608 54.0897 44.0567C55.258 43.9525 56.4258 44.2616 57.3897 44.93C62.123 48.21 67.683 51.8533 71.7363 57.0433C72.2751 57.7363 72.6178 58.5613 72.7286 59.4321C72.8395 60.3029 72.7143 61.1874 72.3663 61.9933C69.5763 68.5033 62.5163 74.0466 55.173 73.7766Z" fill="#064C32"/>
</g>
<defs>
<clipPath id="clip0_21_183">
<rect width="80" height="80" fill="white"/>
</clipPath>
</defs>
</svg>
