<svg width="187" height="245" viewBox="0 0 187 245" fill="none" xmlns="http://www.w3.org/2000/svg">
<path d="M1.06325e-05 123.378C1.3379e-05 91.9626 0.00407496 60.547 1.88718e-05 29.1315C1.9662e-05 20.0926 2.73974 12.183 9.88329 6.28932C14.0517 2.85268 18.8899 0.784211 24.4099 0.492768C41.2176 -0.39372 58.0333 0.201344 74.8491 0.128484C102.494 0.011101 130.135 0.0556286 157.779 0.132535C162.471 0.144682 167.208 0.504942 171.644 2.22934C176.032 3.93754 179.372 7.07463 182.169 10.7663C186.098 15.9557 186.95 22.072 186.958 28.3017C187.007 79.1349 187.023 129.964 186.95 180.797C186.938 190.455 182.725 198.15 174.636 203.49C171.685 205.437 168.235 206.513 164.854 207.627C160.836 208.95 156.748 210.035 152.759 211.472C148.363 213.051 143.805 214.176 139.352 215.601C133.357 217.52 127.302 219.22 121.331 221.219C118.421 222.195 115.373 222.834 112.401 223.684C109.832 224.421 107.316 225.308 104.755 226.057C92.9678 229.493 81.2337 233.112 69.4833 236.674C63.3098 238.544 57.0998 240.309 50.906 242.114C44.6594 243.936 38.3317 244.596 31.8781 244.907C27.2876 245.126 22.7863 245.009 18.3054 243.993C13.1385 242.819 9.24605 239.746 5.87315 235.865C2.32166 231.776 0.840181 226.951 0.324709 221.62C0.032473 218.588 0.0243556 215.581 0.020297 212.561C-0.00811224 182.829 0.00406687 153.102 0.00406947 123.37L1.06325e-05 123.378Z" fill="white"/>
</svg>
