<svg width="187" height="245" viewBox="0 0 187 245" fill="none" xmlns="http://www.w3.org/2000/svg">
<path d="M187 121.622C187 153.037 186.996 184.453 187 215.868C187 224.907 184.26 232.817 177.117 238.711C172.948 242.147 168.11 244.216 162.59 244.507C145.782 245.394 128.967 244.799 112.151 244.872C84.5061 244.989 56.8654 244.944 29.2207 244.867C24.5286 244.855 19.792 244.495 15.3557 242.771C10.9681 241.062 7.62763 237.925 4.83109 234.234C0.902128 229.044 0.0497713 222.928 0.0416536 216.698C-0.00705251 165.865 -0.0232878 115.036 0.0497713 64.2028C0.0619478 54.5445 4.27503 46.8495 12.3643 41.5104C15.3151 39.5633 18.7651 38.4866 22.1461 37.3734C26.1644 36.0498 30.2516 34.965 34.2415 33.528C38.6372 31.9493 43.1953 30.824 47.6478 29.3991C53.6427 27.4804 59.6985 25.7803 65.6691 23.7807C68.5792 22.8052 71.6274 22.1656 74.5985 21.3155C77.1677 20.5788 79.6842 19.6923 82.2454 18.9435C94.0322 15.5068 105.766 11.888 117.517 8.3259C123.69 6.45578 129.9 4.69091 136.094 2.88556C142.341 1.06401 148.668 0.40421 155.122 0.0925241C159.712 -0.126061 164.214 -0.00866881 168.695 1.00735C173.862 2.18123 177.754 5.25356 181.127 9.13547C184.678 13.2238 186.16 18.0489 186.675 23.3799C186.968 26.4118 186.976 29.4194 186.98 32.4391C187.008 62.1707 186.996 91.8983 186.996 121.63L187 121.622Z" fill="white"/>
</svg>
