<svg width="187" height="245" viewBox="0 0 187 245" fill="none" xmlns="http://www.w3.org/2000/svg">
<path d="M187 123.378C187 91.9626 186.996 60.5471 187 29.1315C187 20.0926 184.26 12.1831 177.117 6.28937C172.948 2.85272 168.11 0.784255 162.59 0.492811C145.783 -0.393682 128.967 0.201378 112.151 0.128514C84.5062 0.0111232 56.8655 0.0556435 29.2207 0.132543C24.5287 0.144688 19.792 0.504947 15.3557 2.22934C10.9681 3.93755 7.62767 7.07463 4.83113 10.7663C0.902168 15.9557 0.0498102 22.072 0.0416915 28.3017C-0.00702351 79.1349 -0.0232677 129.964 0.0497825 180.797C0.0619574 190.455 4.27503 198.15 12.3643 203.49C15.3151 205.437 18.7651 206.513 22.1461 207.627C26.1644 208.95 30.2516 210.035 34.2415 211.472C38.6372 213.051 43.1953 214.176 47.6478 215.601C53.6427 217.52 59.6985 219.22 65.6691 221.219C68.5793 222.195 71.6274 222.834 74.5985 223.684C77.1678 224.421 79.6842 225.308 82.2454 226.057C94.0322 229.493 105.766 233.112 117.517 236.674C123.69 238.544 129.9 240.309 136.094 242.114C142.341 243.936 148.668 244.596 155.122 244.908C159.712 245.126 164.214 245.009 168.695 243.993C173.862 242.819 177.754 239.746 181.127 235.865C184.678 231.776 186.16 226.951 186.675 221.62C186.968 218.588 186.976 215.581 186.98 212.561C187.008 182.829 186.996 153.102 186.996 123.37L187 123.378Z" fill="white"/>
</svg>
