<svg width="1298" height="868" viewBox="0 0 1298 868" fill="none" xmlns="http://www.w3.org/2000/svg">
<path d="M648.869 -9.81712e-05C842.575 -9.81712e-05 1036.28 -0.0511853 1229.99 0.144649C1242.29 0.153163 1254.95 0.289396 1266.27 6.64123C1276.76 12.5418 1285.07 20.3752 1290.59 31.444C1296.24 42.7513 1297.11 54.6716 1297.11 66.8133C1297.16 312.883 1297.17 558.953 1297.06 805.022C1297.06 817.19 1295.41 829.399 1288.45 839.813C1278.81 854.245 1265.92 863.67 1247.87 865.595C1229.92 867.51 1211.99 867.119 1194.04 867.119C959.922 867.161 725.798 867.212 491.683 866.991C478.409 866.983 464.675 867.187 452.261 861.005C443.542 856.663 435.964 850.899 430.31 842.554C426.513 836.952 423.746 831.017 422.29 824.648C420.851 818.382 420.033 811.834 420.025 805.406C419.897 668.543 420.025 531.681 419.761 394.818C419.735 383.213 419.82 371.293 416.346 359.994C410.012 339.363 394.907 327.937 375.042 321.678C358.618 316.502 341.998 316.996 325.718 321.202C316.241 323.645 306.79 326.642 297.416 329.665C287.122 332.986 276.632 335.702 266.261 338.81C256.81 341.645 247.444 344.744 237.984 347.563C224.514 351.582 210.976 355.37 197.506 359.398C180.63 364.447 163.814 369.666 146.947 374.767C136.866 377.815 126.623 380.395 116.686 383.869C109.108 386.525 101.36 388.611 93.6461 390.612C80.4826 394.035 67.5065 398.735 53.5427 398.318C41.1711 397.943 30.5364 393.413 21.2556 385.452C16.8706 381.689 12.5708 377.73 9.55665 372.757C5.22276 365.596 2.8387 357.678 2.17456 349.359C-1.49519 303.091 0.948472 256.747 0.539775 210.445C0.0970204 160.388 0.275825 110.314 0.539775 60.2487C0.616406 45.4589 4.09884 31.3333 14.4014 19.9835C20.8469 12.8824 28.5015 7.52674 37.7908 4.08687C47.6591 0.425628 57.7914 0.195736 67.7619 0.178707C261.459 -0.0511853 455.164 -9.81712e-05 648.869 -9.81712e-05Z" fill="#F7F7F7"/>
</svg>
