<svg width="393" height="516" viewBox="0 0 393 516" fill="none" xmlns="http://www.w3.org/2000/svg">
<path d="M392.553 255.983C392.553 322.064 392.544 388.145 392.553 454.227C392.553 473.24 386.806 489.877 371.82 502.274C363.076 509.503 352.926 513.854 341.346 514.467C306.088 516.332 270.812 515.08 235.537 515.233C177.544 515.48 119.56 515.386 61.5678 515.225C51.725 515.199 41.7886 514.441 32.4822 510.814C23.278 507.221 16.2705 500.622 10.404 492.857C2.16199 481.941 0.37394 469.076 0.356911 455.972C0.254737 349.047 0.220679 242.13 0.37394 135.205C0.399484 114.889 9.23756 98.7028 26.207 87.4722C32.3971 83.3767 39.6344 81.1118 46.727 78.7703C55.1564 75.9861 63.7305 73.7042 72.1003 70.6816C81.3215 67.3609 90.8833 64.9938 100.224 61.9967C112.8 57.9608 125.503 54.3848 138.028 50.1786C144.133 48.1266 150.528 46.7813 156.76 44.9932C162.15 43.4436 167.429 41.5789 172.802 40.0037C197.528 32.7749 222.143 25.1629 246.793 17.6701C259.743 13.7364 272.771 10.0241 285.764 6.22662C298.868 2.39508 312.142 1.00722 325.68 0.351603C335.31 -0.108181 344.752 0.138748 354.152 2.27589C364.991 4.7451 373.157 11.2076 380.232 19.373C387.682 27.9727 390.79 38.122 391.872 49.3356C392.485 55.713 392.502 62.0393 392.51 68.3911C392.57 130.93 392.544 193.461 392.544 256L392.553 255.983Z" fill="#F7F7F7"/>
</svg>
