<svg width="90" height="80" viewBox="0 0 90 80" fill="none" xmlns="http://www.w3.org/2000/svg">
<path d="M40 5C37.2344 5 35 7.23438 35 10V25.9219C35 26.7969 34.2969 27.5 33.4219 27.5C32.8594 27.5 32.3281 27.2031 32.0469 26.7031L24.5469 13.5938C12.9688 19.2969 5 31.2188 5 45V55H85V44.625C84.8594 31 76.9219 19.25 65.4531 13.5938L57.9531 26.7031C57.6719 27.2031 57.1406 27.5 56.5781 27.5C55.7031 27.5 55 26.7969 55 25.9219V10C55 7.23438 52.7656 5 50 5H40ZM2.59375 60C1.15625 60 0 61.1562 0 62.5938C0 63.3281 0.3125 64.0312 0.90625 64.4531C4.29688 66.9375 17.4688 75 45 75C72.5312 75 85.7031 66.9375 89.0938 64.4531C89.6875 64.0156 90 63.3281 90 62.5938C90 61.1562 88.8438 60 87.4062 60H2.59375Z" fill="#146140"/>
</svg>
