<svg width="80" height="80" viewBox="0 0 80 80" fill="none" xmlns="http://www.w3.org/2000/svg">
<g clip-path="url(#clip0_19_13)">
<path d="M66.3271 66C68.4871 66 70.3271 67.84 70.3271 70C70.3271 72.16 68.4871 74 66.3271 74H18.327C16.167 74 14.327 72.16 14.327 70C14.327 67.84 16.167 66 18.327 66H66.3271ZM66.3271 60H18.327C12.847 60 8.32705 64.52 8.32705 70C8.32705 75.48 12.847 80 18.327 80H66.3271C68.9792 80 71.5228 78.9464 73.3981 77.0711C75.2735 75.1957 76.3271 72.6522 76.3271 70C76.3271 67.3478 75.2735 64.8043 73.3981 62.9289C71.5228 61.0536 68.9792 60 66.3271 60ZM76.3271 36H64.3271V20H44.327L32.327 36V56H80.3271L76.3271 36ZM38.487 36L46.327 26H56.3271V36H38.487ZM31.3671 5.64L11.367 0L0.327047 39.32C-1.03295 44.44 1.96705 49.76 7.12705 51.2L11.767 52.48L24.927 41.16L9.40705 36.84L16.927 9.84L28.087 12.96C30.327 14.12 35.167 17.36 38.2071 21.48L42.327 16H44.087C39.047 9.64 31.7271 5.84 31.3671 5.64Z" fill="#146140"/>
</g>
<defs>
<clipPath id="clip0_19_13">
<rect width="80" height="80" fill="white"/>
</clipPath>
</defs>
</svg>
